<?xml version="1.0" standalone="no"?>
<!DOCTYPE svg PUBLIC "-//W3C//DTD SVG 20010904//EN"
 "http://www.w3.org/TR/2001/REC-SVG-20010904/DTD/svg10.dtd">
<svg version="1.0" xmlns="http://www.w3.org/2000/svg"
 width="700.000000pt" height="700.000000pt" viewBox="0 0 700.000000 700.000000"
 preserveAspectRatio="xMidYMid meet">
<metadata>
Created by potrace 1.14, written by Peter Selinger 2001-2017
</metadata>
<g transform="translate(0.000000,700.000000) scale(0.100000,-0.100000)"
fill="#000000" stroke="none">
<path d="M3190 6784 c-96 -21 -190 -109 -219 -204 -6 -19 -13 -78 -15 -131 -4
-75 -10 -104 -27 -133 -26 -45 -79 -73 -149 -80 -86 -8 -145 -33 -199 -84 -69
-65 -94 -124 -97 -236 -2 -48 -5 -91 -8 -94 -3 -3 -212 -5 -463 -5 -322 0
-471 -4 -503 -12 -119 -31 -195 -103 -240 -224 -16 -46 -17 -179 -16 -2582 l1
-2534 28 -57 c44 -90 120 -157 212 -188 59 -20 3901 -22 3990 -2 118 26 208
110 246 232 17 55 18 173 16 2581 l-2 2524 -27 57 c-30 65 -98 137 -155 167
-68 34 -145 39 -596 39 -241 0 -440 1 -442 4 -3 2 -7 45 -9 94 -3 60 -11 104
-24 136 -45 102 -141 170 -262 183 -137 15 -181 65 -186 210 -3 101 -8 125
-34 178 -31 63 -83 113 -147 144 l-57 26 -283 1 c-178 1 -302 -3 -333 -10z
m31 -164 c-46 -45 -57 -78 -60 -180 -2 -93 -3 -95 -31 -167 -25 -62 -145 -153
-202 -153 -17 0 -13 6 23 29 99 62 140 146 144 296 2 84 6 100 29 135 26 40
79 74 117 77 16 2 13 -6 -20 -37z m-451 -537 c-75 -52 -83 -82 -83 -339 0
-214 1 -223 24 -263 12 -23 37 -51 54 -62 l30 -21 -34 6 c-53 9 -101 45 -122
90 -16 36 -19 68 -19 254 0 227 5 257 51 302 28 26 76 49 104 50 17 0 17 -2
-5 -17z m-1140 -414 c-39 -16 -71 -50 -96 -104 l-24 -50 0 -2505 c0 -2461 1
-2506 20 -2548 21 -46 36 -64 84 -100 l31 -23 -35 2 c-96 4 -183 62 -209 138
-8 25 -11 699 -11 2535 0 2485 1 2501 21 2545 35 78 102 119 194 120 43 0 47
-2 25 -10z"/>
<path d="M4945 6370 c-120 -37 -148 -192 -51 -277 72 -64 187 -48 239 34 33
50 32 134 -2 182 -40 56 -119 81 -186 61z m113 -67 c31 -19 53 -74 46 -112 -7
-36 -40 -69 -80 -79 -41 -11 -65 -5 -99 24 -27 23 -30 32 -30 81 0 49 3 57 30
79 45 36 84 38 133 7z"/>
<path d="M6295 4884 c-5 -1 -27 -5 -48 -9 -98 -16 -152 -151 -97 -241 61 -98
213 -103 274 -8 26 39 32 118 12 162 -22 48 -106 106 -141 96z m31 -64 c28
-11 63 -45 65 -64 1 -6 3 -23 4 -37 2 -14 -5 -40 -16 -58 -34 -56 -108 -68
-158 -25 -57 47 -50 137 13 175 35 22 53 23 92 9z"/>
<path d="M910 2905 c-6 -7 -10 -17 -9 -21 1 -5 1 -21 0 -36 l-1 -27 -30 29
c-53 52 -84 12 -33 -42 l27 -28 -41 0 c-49 0 -71 -20 -48 -43 9 -9 27 -14 45
-12 39 5 45 -7 14 -29 -13 -11 -24 -27 -24 -38 0 -32 29 -33 61 -2 l29 28 0
-31 c0 -17 3 -38 6 -47 7 -19 43 -22 46 -3 0 6 2 23 3 37 2 14 3 29 4 34 0 6
14 -3 30 -18 32 -31 61 -30 61 2 0 11 -11 28 -25 38 -33 25 -32 31 9 29 42 -3
59 7 54 31 -2 14 -14 20 -47 24 l-43 5 26 24 c14 14 26 33 26 43 0 24 -35 24
-62 -2 -29 -27 -36 -25 -32 6 5 47 -23 77 -46 49z"/>
<path d="M6270 1635 c-6 -8 -11 -31 -10 -52 4 -74 6 -72 -62 -75 -57 -3 -63
-5 -66 -25 -4 -25 -1 -26 73 -27 l50 -1 3 -45 c4 -77 10 -92 35 -88 20 3 22 8
21 66 0 34 2 62 5 63 4 0 31 2 61 3 73 4 70 3 70 25 0 24 -19 31 -83 31 l-52
0 0 53 c1 28 0 57 -3 64 -6 18 -30 23 -42 8z"/>
</g>
</svg>
